<svg width="666" height="432" viewBox="0 0 666 432" fill="none" xmlns="http://www.w3.org/2000/svg">
<path fill-rule="evenodd" clip-rule="evenodd" d="M454 88V0H366V176H573.428C553.172 271.969 467.998 344 366 344V432C531.685 432 666 297.685 666 132V88H454Z" fill="white"/>
<path d="M300 0H0V88H207.428C187.172 183.969 101.998 256 0 256V344C58.1875 344 112.506 327.434 158.496 298.761C191.614 334.795 211.256 379.889 211.979 432H299.985C299.252 356.884 270.869 292.171 225.589 241.767C271.915 188.966 300 119.763 300 44V0Z" fill="white"/>
</svg>
